Input #0, mov,mp4,m4a,3gp,3g2,mj2, from '/home/hbattu/projects/huberman-gpt/huberman-audio/mp3/tmpkk38f5qi.mp4':
  Metadata:
    major_brand     : dash
    minor_version   : 0
    compatible_brands: iso6mp41
    creation_time   : 2021-04-29T04:13:26.000000Z
  Duration: 01:46:00.78, start: 0.000000, bitrate: 129 kb/s
    Stream #0:0(und): Audio: aac (LC) (mp4a / 0x6134706D), 44100 Hz, stereo, fltp, 0 kb/s (default)
    Metadata:
      creation_time   : 2021-04-29T04:13:26.000000Z
      handler_name    : ISO Media file produced by Google Inc.
Stream mapping:
  Stream #0:0 -> #0:0 (aac (native) -> mp3 (libmp3lame))
Press [q] to stop, [?] for help
[graph_0_in_0_0 @ 0x555a5bf9d180] tb:1/44100 samplefmt:fltp samplerate:44100 chlayout:0x3
Output #0, mp3, to '../huberman-audio/mp3/x7qbJeRxWGw.mp3':
  Metadata:
    major_brand     : dash
    minor_version   : 0
    compatible_brands: iso6mp41
    TSSE            : Lavf58.29.100
    Stream #0:0(und): Audio: mp3 (libmp3lame), 44100 Hz, stereo, fltp, delay 1105 (default)
    Metadata:
      creation_time   : 2021-04-29T04:13:26.000000Z
      handler_name    : ISO Media file produced by Google Inc.
      encoder         : Lavc58.54.100 libmp3lame
No more output streams to write to, finishing.
size=   99388kB time=01:46:00.79 bitrate= 128.0kbits/s speed=  87x    
[AVIOContext @ 0x555a5be8f900] Statistics: 0 seeks, 147 writeouts
video:0kB audio:99388kB subtitle:0kB other streams:0kB global headers:0kB muxing overhead: 0.000340%
Input file #0 (/home/hbattu/projects/huberman-gpt/huberman-audio/mp3/tmpkk38f5qi.mp4):
  Input stream #0:0 (audio): 273936 packets read (101772503 bytes); 273936 frames decoded (280510464 samples); 
  Total: 273936 packets (101772503 bytes) demuxed
Output file #0 (../huberman-audio/mp3/x7qbJeRxWGw.mp3):
  Output stream #0:0 (audio): 243499 frames encoded (280510464 samples); 243500 packets muxed (101773061 bytes); 
  Total: 243500 packets (101773061 bytes) muxed
[AVIOContext @ 0x555a5beb84c0] Statistics: 2 seeks, 390 writeouts
[AVIOContext @ 0x555a5be98880] Statistics: 102942919 bytes read, 0 seeks
